<svg width="700" height="700" viewBox="0 0 700 700" fill="none" xmlns="http://www.w3.org/2000/svg">
<rect width="700" height="700" fill="#1E1E1E"/>
<path d="M132.296 581V101H179.996V581H132.296ZM211.796 581V538.1H227.096C241.496 538.1 251.696 535.6 257.696 530.6C263.696 525.4 266.796 516.8 266.996 504.8C267.596 474 268.096 445.3 268.496 418.7C268.896 392.1 269.096 366.2 269.096 341C269.096 315.6 268.896 289.6 268.496 263C268.096 236.4 267.596 207.7 266.996 176.9C266.796 164.9 263.496 156.4 257.096 151.4C250.696 146.4 239.596 143.9 223.796 143.9H211.796V101H223.796C255.796 101 278.796 107.2 292.796 119.6C306.796 132 313.996 152.4 314.396 180.8C314.996 218.8 315.396 255 315.596 289.4C315.796 323.8 315.796 358.2 315.596 392.6C315.396 426.8 314.996 462.9 314.396 500.9C313.996 529.5 306.996 550 293.396 562.4C279.796 574.8 257.696 581 227.096 581H211.796ZM383.663 581V101H431.363V581H383.663ZM410.963 361.1V318.2H499.163L487.763 361.1H410.963ZM519.863 581V101H567.563V581H519.863Z" fill="#FFB100"/>
</svg>
