<?xml version="1.0" standalone="no"?>
<!DOCTYPE svg PUBLIC "-//W3C//DTD SVG 20010904//EN"
 "http://www.w3.org/TR/2001/REC-SVG-20010904/DTD/svg10.dtd">
<svg version="1.0" xmlns="http://www.w3.org/2000/svg"
 width="700.000000pt" height="700.000000pt" viewBox="0 0 700.000000 700.000000"
 preserveAspectRatio="xMidYMid meet">
<metadata>
Created by potrace 1.14, written by Peter Selinger 2001-2017
</metadata>
<g transform="translate(0.000000,700.000000) scale(0.100000,-0.100000)"
fill="#000000" stroke="none">
<path d="M0 3500 l0 -3500 3500 0 3500 0 0 3500 0 3500 -3500 0 -3500 0 0
-3500z m1800 90 l0 -2400 -240 0 -240 0 0 2400 0 2400 240 0 240 0 0 -2400z
m775 2370 c254 -54 394 -151 481 -335 55 -114 74 -208 86 -420 14 -259 14
-2975 0 -3230 -18 -311 -65 -450 -196 -581 -141 -141 -356 -204 -698 -204
l-128 0 0 214 0 214 153 5 c99 3 170 10 203 21 105 33 162 99 183 211 19 100
34 1338 27 2190 -4 457 -11 934 -15 1060 -6 208 -9 235 -30 280 -57 129 -167
175 -413 175 l-108 0 0 217 0 216 178 -6 c121 -4 209 -13 277 -27z m1735
-1055 l0 -1085 340 0 c187 0 340 -2 340 -4 0 -3 -25 -98 -55 -211 -30 -114
-55 -209 -55 -211 0 -2 -128 -4 -285 -4 l-285 0 0 -1100 0 -1100 -235 0 -235
0 0 2400 0 2400 235 0 235 0 0 -1085z m1370 -1315 l0 -2400 -240 0 -240 0 0
2400 0 2400 240 0 240 0 0 -2400z"/>
</g>
</svg>
